<svg xmlns="http://www.w3.org/2000/svg" version="1.1" xmlns:xlink="http://www.w3.org/1999/xlink" viewBox="0 0 200 200"><rect width="200" height="200" fill="url('#gradient')"></rect><defs><linearGradient id="gradient" gradientTransform="rotate(45 0.5 0.5)"><stop offset="0%" stop-color="#328c78"></stop><stop offset="100%" stop-color="#28819e"></stop></linearGradient></defs><g><g fill="#f6ebbc" transform="matrix(3.7925925925925927,0,0,3.7925925925925927,5.925051389800174,128.08637396494547)" stroke="#dba545" stroke-width="0.2"><path d="M10.03-8.30L10.03-5.66L4.50-5.66L4.50 0L1.07 0L1.07-14.22L10.59-14.22L10.59-11.57L4.50-11.57L4.50-8.30L10.03-8.30ZM15.33-15L15.33 0L12.03 0L12.03-15L15.33-15ZM26.60 0L23.31 0Q23.13-0.32 23.00-0.95L23.00-0.95Q22.09 0.20 20.46 0.20L20.46 0.20Q18.96 0.20 17.92-0.71Q16.88-1.61 16.88-2.98L16.88-2.98Q16.88-4.70 18.14-5.58Q19.41-6.46 21.84-6.46L21.84-6.46L22.85-6.46L22.85-7.01Q22.85-8.47 21.59-8.47L21.59-8.47Q20.42-8.47 20.42-7.31L20.42-7.31L17.13-7.31Q17.13-8.85 18.43-9.80Q19.74-10.76 21.76-10.76Q23.78-10.76 24.95-9.78Q26.12-8.79 26.15-7.07L26.15-7.07L26.15-2.39Q26.17-0.94 26.60-0.17L26.60-0.17L26.60 0ZM21.25-2.15L21.25-2.15Q21.87-2.15 22.27-2.41Q22.68-2.68 22.85-3.01L22.85-3.01L22.85-4.70L21.89-4.70Q20.18-4.70 20.18-3.15L20.18-3.15Q20.18-2.71 20.48-2.43Q20.78-2.15 21.25-2.15ZM33.51-2.97L33.51-2.97Q33.51-3.39 33.07-3.64Q32.63-3.90 31.40-4.17Q30.17-4.44 29.37-4.89Q28.56-5.33 28.14-5.97Q27.72-6.60 27.72-7.42L27.72-7.42Q27.72-8.88 28.93-9.82Q30.13-10.76 32.07-10.76L32.07-10.76Q34.16-10.76 35.43-9.81Q36.70-8.87 36.70-7.32L36.70-7.32L33.40-7.32Q33.40-8.59 32.06-8.59L32.06-8.59Q31.54-8.59 31.19-8.31Q30.84-8.02 30.84-7.59L30.84-7.59Q30.84-7.15 31.27-6.88Q31.70-6.60 32.64-6.43Q33.58-6.25 34.30-6.01L34.30-6.01Q36.68-5.19 36.68-3.07L36.68-3.07Q36.68-1.62 35.40-0.71Q34.11 0.20 32.07 0.20L32.07 0.20Q30.71 0.20 29.65-0.29Q28.58-0.78 27.99-1.62Q27.39-2.46 27.39-3.39L27.39-3.39L30.47-3.39Q30.49-2.66 30.96-2.32Q31.43-1.98 32.16-1.98L32.16-1.98Q32.83-1.98 33.17-2.26Q33.51-2.53 33.51-2.97ZM44.77 0L42.46-3.94L41.53-3.01L41.53 0L38.24 0L38.24-15.01L41.53-15.01L41.53-7.04L41.87-7.48L44.35-10.57L48.29-10.57L44.59-6.22L48.54 0L44.77 0Z"></path></g></g></svg>